<mxfile host="app.diagrams.net" modified="2023-12-30T22:38:32.832Z" agent="Mozilla/5.0 (Windows NT 10.0; Win64; x64) AppleWebKit/537.36 (KHTML, like Gecko) Chrome/119.0.0.0 Safari/537.36 OPR/105.0.0.0 (Edition Yx 05)" etag="-g8T28INVgFxC9nGyp2b" version="22.1.16" type="github">
  <diagram name="Страница — 1" id="QlBlY5kvdwr1__4FmAS7">
    <mxGraphModel dx="2072" dy="1135" grid="1" gridSize="10" guides="1" tooltips="1" connect="1" arrows="1" fold="1" page="1" pageScale="1" pageWidth="827" pageHeight="1169" math="0" shadow="0">
      <root>
        <mxCell id="0" />
        <mxCell id="1" parent="0" />
        <mxCell id="gTMKpbMRtVbCMDMeHvGo-1" value="Хранилище&lt;br&gt;данных" style="strokeWidth=2;html=1;shape=mxgraph.flowchart.database;whiteSpace=wrap;" vertex="1" parent="1">
          <mxGeometry x="351" y="585" width="126" height="145" as="geometry" />
        </mxCell>
        <mxCell id="gTMKpbMRtVbCMDMeHvGo-5" value="СКЛАД" style="strokeWidth=2;html=1;shape=mxgraph.flowchart.database;whiteSpace=wrap;" vertex="1" parent="1">
          <mxGeometry x="40" y="430" width="60" height="60" as="geometry" />
        </mxCell>
        <mxCell id="gTMKpbMRtVbCMDMeHvGo-6" value="SALES" style="strokeWidth=2;html=1;shape=mxgraph.flowchart.database;whiteSpace=wrap;" vertex="1" parent="1">
          <mxGeometry x="40" y="590" width="60" height="60" as="geometry" />
        </mxCell>
        <mxCell id="gTMKpbMRtVbCMDMeHvGo-7" value="CRM" style="strokeWidth=2;html=1;shape=mxgraph.flowchart.database;whiteSpace=wrap;" vertex="1" parent="1">
          <mxGeometry x="40" y="750" width="60" height="60" as="geometry" />
        </mxCell>
        <mxCell id="gTMKpbMRtVbCMDMeHvGo-8" value="Google Analytics API" style="shape=image;html=1;verticalLabelPosition=bottom;verticalAlign=top;imageAspect=1;aspect=fixed;image=img/clipart/Gear_128x128.png" vertex="1" parent="1">
          <mxGeometry x="40" y="920" width="52" height="61" as="geometry" />
        </mxCell>
        <mxCell id="gTMKpbMRtVbCMDMeHvGo-10" value="" style="edgeStyle=elbowEdgeStyle;elbow=horizontal;endArrow=classic;html=1;curved=0;rounded=0;endSize=8;startSize=8;exitX=1;exitY=0.5;exitDx=0;exitDy=0;" edge="1" parent="1" source="gTMKpbMRtVbCMDMeHvGo-8" target="gTMKpbMRtVbCMDMeHvGo-1">
          <mxGeometry width="50" height="50" relative="1" as="geometry">
            <mxPoint x="240" y="860" as="sourcePoint" />
            <mxPoint x="290" y="810" as="targetPoint" />
          </mxGeometry>
        </mxCell>
        <mxCell id="gTMKpbMRtVbCMDMeHvGo-13" value="" style="shape=partialRectangle;whiteSpace=wrap;html=1;bottom=0;top=0;fillColor=none;" vertex="1" parent="1">
          <mxGeometry x="270" y="280" width="256" height="790" as="geometry" />
        </mxCell>
        <mxCell id="gTMKpbMRtVbCMDMeHvGo-15" value="" style="edgeStyle=elbowEdgeStyle;elbow=vertical;endArrow=classic;html=1;curved=0;rounded=0;endSize=8;startSize=8;exitX=1.067;exitY=0.667;exitDx=0;exitDy=0;exitPerimeter=0;entryX=-0.012;entryY=0.4;entryDx=0;entryDy=0;entryPerimeter=0;" edge="1" parent="1" source="gTMKpbMRtVbCMDMeHvGo-5" target="gTMKpbMRtVbCMDMeHvGo-13">
          <mxGeometry width="50" height="50" relative="1" as="geometry">
            <mxPoint x="390" y="600" as="sourcePoint" />
            <mxPoint x="440" y="550" as="targetPoint" />
            <Array as="points">
              <mxPoint x="170" y="440" />
            </Array>
          </mxGeometry>
        </mxCell>
        <mxCell id="gTMKpbMRtVbCMDMeHvGo-16" value="SOURCE" style="text;html=1;align=center;verticalAlign=middle;resizable=0;points=[];autosize=1;strokeColor=none;fillColor=none;fontSize=27;" vertex="1" parent="1">
          <mxGeometry x="40" y="230" width="140" height="50" as="geometry" />
        </mxCell>
        <mxCell id="gTMKpbMRtVbCMDMeHvGo-17" value="STORAGE" style="text;html=1;align=center;verticalAlign=middle;resizable=0;points=[];autosize=1;strokeColor=none;fillColor=none;fontSize=27;" vertex="1" parent="1">
          <mxGeometry x="318" y="230" width="160" height="50" as="geometry" />
        </mxCell>
        <mxCell id="gTMKpbMRtVbCMDMeHvGo-18" value="BUISNESS" style="text;html=1;align=center;verticalAlign=middle;resizable=0;points=[];autosize=1;strokeColor=none;fillColor=none;fontSize=27;" vertex="1" parent="1">
          <mxGeometry x="620" y="230" width="160" height="50" as="geometry" />
        </mxCell>
      </root>
    </mxGraphModel>
  </diagram>
</mxfile>
